<svg width="1123" height="251" viewBox="0 0 1123 251" fill="none" xmlns="http://www.w3.org/2000/svg">
    <path d="M0 56.475H18.8471C25.1294 42.8792 44.6047 15.6875 72.2471 15.6875C99.8894 15.6875 125.647 34.5125 135.071 43.925C142.4 34.5125 164.598 15.6875 194.753 15.6875C224.908 15.6875 245.012 42.8792 251.294 56.475H267C267 34.5125 235.588 0 191.612 0C156.431 0 131.929 21.9625 131.929 21.9625C132.483 21.2278 109.941 0 72.2471 0C29.4532 0 6.28235 36.6042 0 56.475Z" fill="#D91F3A" />
    <path d="M84.8118 188.25H65.9647L131.929 251L204.176 188.25H182.188L131.929 230.542L84.8118 188.25Z" fill="#D91F3A" />
    <path d="M16.6958 173.184C15.8078 173.184 14.8705 173.135 13.8838 173.036C12.9958 173.036 12.0585 172.937 11.0718 172.74L10.9238 149.356C11.3185 149.455 11.6638 149.504 11.9598 149.504C12.2558 149.504 12.5025 149.504 12.6998 149.504C14.7718 149.504 16.5478 148.961 18.0278 147.876C19.5078 146.692 20.7905 145.015 21.8758 142.844C22.9612 140.575 23.8492 137.861 24.5398 134.704C25.2305 131.448 25.7732 127.699 26.1678 123.456C26.5625 119.213 26.8092 114.527 26.9078 109.396C27.1052 104.265 27.2038 98.6907 27.2038 92.672V68.4H99.5758V172H72.9358V90.6H52.0678V107.028C52.0678 114.231 51.7718 120.891 51.1798 127.008C50.5878 133.027 49.6505 138.503 48.3678 143.436C47.0852 148.369 45.4572 152.711 43.4838 156.46C41.6092 160.111 39.3398 163.169 36.6758 165.636C34.1105 168.103 31.1505 169.977 27.7958 171.26C24.4412 172.543 20.7412 173.184 16.6958 173.184Z" fill="#D91F3A" />
    <path d="M131.36 127.6V105.4H162.44V127.6H131.36ZM207.58 150.836C211.231 150.836 214.536 150.195 217.496 148.912C220.555 147.629 223.169 145.705 225.34 143.14C227.609 140.575 229.336 137.417 230.52 133.668C231.803 129.82 232.444 125.331 232.444 120.2C232.444 115.267 231.803 110.876 230.52 107.028C229.336 103.18 227.609 99.9734 225.34 97.408C223.169 94.8427 220.555 92.9187 217.496 91.636C214.536 90.2547 211.231 89.564 207.58 89.564C204.028 89.564 200.673 90.2054 197.516 91.488C194.359 92.672 191.596 94.4974 189.228 96.964C186.959 99.332 185.133 102.341 183.752 105.992C182.371 109.643 181.68 113.935 181.68 118.868C181.68 124.295 182.371 129.031 183.752 133.076C185.133 137.023 186.959 140.328 189.228 142.992C191.596 145.656 194.359 147.629 197.516 148.912C200.673 150.195 204.028 150.836 207.58 150.836ZM207.58 173.776C199.687 173.776 192.533 172.444 186.12 169.78C179.805 167.116 174.379 163.416 169.84 158.68C165.4 153.845 161.947 148.073 159.48 141.364C157.112 134.556 155.928 127.008 155.928 118.72C155.928 111.123 157.112 104.117 159.48 97.704C161.947 91.2907 165.4 85.8147 169.84 81.276C174.379 76.6387 179.805 73.0374 186.12 70.472C192.533 67.9067 199.687 66.624 207.58 66.624C215.473 66.624 222.627 67.9067 229.04 70.472C235.552 73.0374 241.127 76.688 245.764 81.424C250.5 86.16 254.151 91.8334 256.716 98.444C259.281 105.055 260.564 112.356 260.564 120.348C260.564 128.143 259.281 135.345 256.716 141.956C254.151 148.468 250.5 154.092 245.764 158.828C241.127 163.564 235.552 167.264 229.04 169.928C222.627 172.493 215.473 173.776 207.58 173.776ZM145.42 68.4V172H118.78V68.4H145.42Z" fill="#D91F3A" />
    <path d="M336.745 172L300.781 117.24L330.529 68.4H359.389V71.36L327.273 118.868V108.36L367.973 169.04V172H336.745ZM289.829 128.932V106.14H319.577V128.932H289.829ZM301.225 68.4V172H274.585V68.4H301.225Z" fill="#D91F3A" />
    <path d="M420.86 173.036C412.276 173.036 404.58 171.753 397.772 169.188C390.964 166.623 385.192 163.021 380.456 158.384C375.818 153.747 372.217 148.221 369.652 141.808C367.185 135.296 365.952 128.192 365.952 120.496C365.952 112.8 367.234 105.696 369.8 99.184C372.464 92.5734 376.213 86.9 381.048 82.164C385.882 77.428 391.704 73.728 398.512 71.064C405.32 68.3014 412.917 66.92 421.304 66.92C428.408 66.92 434.772 67.9067 440.396 69.88C446.118 71.8534 451.249 74.616 455.788 78.168L445.724 96.372C442.27 94.1027 438.62 92.4747 434.772 91.488C430.924 90.4027 427.273 89.86 423.82 89.86C419.478 89.86 415.482 90.5507 411.832 91.932C408.181 93.3134 405.024 95.336 402.36 98C399.794 100.565 397.772 103.673 396.292 107.324C394.812 110.975 394.072 115.069 394.072 119.608C394.072 124.443 394.812 128.735 396.292 132.484C397.772 136.233 399.893 139.44 402.656 142.104C405.418 144.669 408.724 146.643 412.572 148.024C416.518 149.307 420.909 149.948 425.744 149.948C427.224 149.948 428.901 149.849 430.776 149.652C432.65 149.455 434.574 149.109 436.548 148.616C438.521 148.123 440.445 147.383 442.32 146.396C444.293 145.311 446.118 143.979 447.796 142.4L458.304 160.604C456.429 162.38 454.209 164.057 451.644 165.636C449.078 167.116 446.168 168.399 442.912 169.484C439.754 170.569 436.301 171.408 432.552 172C428.901 172.691 425.004 173.036 420.86 173.036Z" fill="#D91F3A" />
    <path d="M559.384 150.836C563.429 150.836 567.179 150.195 570.632 148.912C574.184 147.629 577.242 145.705 579.808 143.14C582.373 140.476 584.346 137.22 585.728 133.372C587.208 129.524 587.948 125.084 587.948 120.052C587.948 115.119 587.208 110.728 585.728 106.88C584.346 103.032 582.373 99.8254 579.808 97.26C577.341 94.596 574.332 92.5734 570.78 91.192C567.327 89.8107 563.528 89.12 559.384 89.12C555.24 89.12 551.392 89.8107 547.84 91.192C544.387 92.4747 541.377 94.448 538.812 97.112C536.345 99.6774 534.372 102.884 532.892 106.732C531.51 110.58 530.82 115.02 530.82 120.052C530.82 124.985 531.51 129.376 532.892 133.224C534.273 136.973 536.197 140.18 538.664 142.844C541.229 145.409 544.239 147.383 547.692 148.764C551.244 150.145 555.141 150.836 559.384 150.836ZM559.384 173.036C550.8 173.036 543.055 171.803 536.148 169.336C529.241 166.771 523.37 163.169 518.536 158.532C513.701 153.895 509.952 148.32 507.288 141.808C504.723 135.296 503.44 128.044 503.44 120.052C503.44 112.553 504.723 105.597 507.288 99.184C509.853 92.672 513.553 87.048 518.388 82.312C523.222 77.4774 529.093 73.728 536 71.064C542.906 68.3014 550.701 66.92 559.384 66.92C567.672 66.92 575.22 68.2027 582.028 70.768C588.935 73.2347 594.854 76.836 599.788 81.572C604.721 86.2094 608.52 91.784 611.184 98.296C613.947 104.808 615.328 112.06 615.328 120.052C615.328 127.551 613.996 134.556 611.332 141.068C608.767 147.481 605.017 153.056 600.084 157.792C595.249 162.528 589.378 166.277 582.472 169.04C575.664 171.704 567.968 173.036 559.384 173.036Z" fill="#D91F3A" />
    <path d="M629.448 172V68.4H717.656V172H691.016V80.832L702.708 90.6H645.284L656.088 78.464V172H629.448Z" fill="#D91F3A" />
    <path d="M752.523 172V90.6H730.175V68.4H801.511V90.6H779.163V172H752.523Z" fill="#D91F3A" />
    <path d="M814.159 172V68.4H840.799V133.964L836.507 130.264L888.307 68.4H905.327V172H878.687V97.704L889.343 102.588L831.179 172H814.159Z" fill="#D91F3A" />
    <path d="M986.741 172L950.777 117.24L980.525 68.4H1009.38V71.36L977.269 118.868V108.36L1017.97 169.04V172H986.741ZM939.825 128.932V106.14H969.573V128.932H939.825ZM951.221 68.4V172H924.581V68.4H951.221Z" fill="#D91F3A" />
    <path d="M1018.9 172L1059 68.4H1081.65L1122.5 172H1094.52L1067.29 96.816H1072.03L1044.8 172H1018.9ZM1046.42 153.796V133.224H1093.49V153.796H1046.42Z" fill="#D91F3A" />
</svg>